<svg version="1.1" id="Layer_1" xmlns="http://www.w3.org/2000/svg" xmlns:xlink="http://www.w3.org/1999/xlink" x="0px" y="0px"
	 viewBox="0 0 207 197" enable-background="new 0 0 207 197" xml:space="preserve">
<g id="XMLID_6_" opacity="0.6">
	<g id="XMLID_48_">
		<polygon id="XMLID_21_" fill="#006838" points="70.8,32.3 174,165 135,167 35.5,32.5 		"/>
	</g>
	<g id="XMLID_49_">
	</g>
</g>
<g id="XMLID_38_">
	<g id="XMLID_20_">
		<linearGradient id="XMLID_102_" gradientUnits="userSpaceOnUse" x1="40.9155" y1="98.6352" x2="165.4155" y2="98.6352">
			<stop  offset="0" style="stop-color:#FFFFFF;stop-opacity:0"/>
			<stop  offset="0.2463" style="stop-color:#CCDAF0;stop-opacity:0"/>
			<stop  offset="0.5271" style="stop-color:#9AB8E1;stop-opacity:0.5222"/>
			<stop  offset="0.7685" style="stop-color:#CAD8EF;stop-opacity:0"/>
			<stop  offset="1" style="stop-color:#FFFFFF;stop-opacity:0"/>
		</linearGradient>
		<polygon id="XMLID_44_" fill="url(#XMLID_102_)" points="165.4,23.1 51.4,183.3 40.9,174.1 155.7,14 		"/>
	</g>
	<g id="XMLID_43_">
	</g>
</g>
<g id="XMLID_14_">
	<g id="XMLID_17_">
		<linearGradient id="XMLID_103_" gradientUnits="userSpaceOnUse" x1="40.2819" y1="96.764" x2="159.9146" y2="27.694">
			<stop  offset="0" style="stop-color:#58595B"/>
			<stop  offset="1" style="stop-color:#ED1C24"/>
		</linearGradient>
		<path id="XMLID_8_" fill="url(#XMLID_103_)" d="M50.9,183.3l-33.2,8l0.1-36.2l11.8,9.9l41.8-59.1L10,21.6l69.8-0.4l27.4,35.1
			l30.2-41.8l10.7,9.6l-40.4,56.1L70.8,32.3l-35.3,0.3l41.9,57.2c11.3,15.5,12.1,15.8,12.1,15.8l-48.6,68.6L50.9,183.3z"/>
	</g>
	<g id="XMLID_18_">
		<path id="XMLID_9_" fill="none" stroke="#000000" stroke-miterlimit="10" d="M70.8,32.3l37.1,47.8L148.2,24l-10.7-9.6l-30.2,41.8
			L79.9,21.2L10,21.6l61.4,84.3L29.6,165l-11.8-9.9l-0.1,36.2l33.2-8l-9.9-9.3l48.6-68.6c0,0-0.8-0.2-12.1-15.8L35.5,32.5L70.8,32.3
			z"/>
	</g>
</g>
<path id="XMLID_24_" fill="none" stroke="#000000" stroke-miterlimit="10" d="M98.7,118"/>
<path id="XMLID_23_" fill="none" stroke="#000000" stroke-miterlimit="10" d="M105.5,105.9"/>
<path id="XMLID_32_" fill="none" stroke="#000000" stroke-miterlimit="10" d="M116.2,90.9"/>
<path id="XMLID_4_" fill="none" stroke="#000000" stroke-miterlimit="10" d="M106.3,78.2"/>
<path id="XMLID_28_" fill="none" stroke="#000000" stroke-miterlimit="10" d="M17.4,154.4"/>
<path id="XMLID_35_" fill="none" stroke="#000000" stroke-miterlimit="10" d="M189,42.7"/>
<path id="XMLID_40_" fill="none" stroke="#000000" stroke-miterlimit="10" d="M29.6,165"/>
<path id="XMLID_95_" fill="none" stroke="#000000" stroke-miterlimit="10" d="M165.4,23.1"/>
<path id="XMLID_94_" fill="none" stroke="#000000" stroke-miterlimit="10" d="M58.8,173.6"/>
<g id="XMLID_7_">
	<g id="XMLID_34_">
		<linearGradient id="XMLID_138_" gradientUnits="userSpaceOnUse" x1="88.2757" y1="145.4359" x2="207.9169" y2="76.361">
			<stop  offset="0" style="stop-color:#2E3192"/>
			<stop  offset="1" style="stop-color:#FFFFFF"/>
		</linearGradient>
		<path id="XMLID_2_" fill="url(#XMLID_138_)" d="M58.8,173.6l40.1-56.2l37.3,47.7l35.3-0.4l-42.2-57
			c-11.3-15.5-12.2-15.7-12.2-15.7L165.4,23l-9.2-9.5l32.3-7.8l0,36.2L176.7,32l-41.5,59.3l61.8,84.1l-69.8,0.7l-27.6-34.9l-30,41.9
			L58.8,173.6z"/>
	</g>
	<g id="XMLID_13_">
		<path id="XMLID_19_" fill="none" stroke="#000000" stroke-miterlimit="10" d="M136.2,165l-37.3-47.7l-40.1,56.2l10.8,9.5l30-41.9
			l27.6,34.9l69.8-0.7l-61.8-84.1L176.7,32l11.8,9.8l0-36.2l-32.3,7.8l9.2,9.5l-48.3,68.8c0,0,0.8,0.2,12.2,15.7l42.2,57L136.2,165z
			"/>
	</g>
</g>
<path id="XMLID_33_" fill="none" stroke="#000000" stroke-miterlimit="10" d="M133.8,7.6"/>
<polyline id="XMLID_37_" fill="none" points="40.9,174.1 155.3,14 165.4,23.1 "/>
<g id="XMLID_3_">
</g>
<g id="XMLID_96_">
</g>
<g id="XMLID_97_">
</g>
<g id="XMLID_98_">
</g>
<g id="XMLID_99_">
</g>
<g id="XMLID_100_">
</g>
</svg>