<?xml version="1.0" standalone="no"?>
<!DOCTYPE svg PUBLIC "-//W3C//DTD SVG 20010904//EN"
 "http://www.w3.org/TR/2001/REC-SVG-20010904/DTD/svg10.dtd">
<svg version="1.0" xmlns="http://www.w3.org/2000/svg"
 width="994.000000pt" height="576.000000pt" viewBox="0 0 994.000000 576.000000"
 preserveAspectRatio="xMidYMid meet">

<g transform="translate(0.000000,576.000000) scale(0.100000,-0.100000)"
fill="#000000" stroke="none">
<path d="M865 5510 c-3 -6 3 -10 15 -10 12 0 19 -4 15 -10 -4 -6 -15 -6 -30 0
-14 5 -32 7 -42 3 -11 -4 -14 -3 -9 6 18 28 -127 -28 -155 -60 -10 -12 -23
-18 -28 -14 -6 3 -11 2 -11 -4 0 -5 -13 -18 -30 -28 -37 -22 -38 -27 -1 -30
24 -2 28 1 24 17 -4 15 -1 18 16 15 12 -2 21 1 21 6 0 6 4 7 10 4 17 -11 51
-14 45 -5 -3 5 -1 11 4 15 5 3 8 15 6 26 -4 18 0 20 20 16 14 -2 25 0 25 4 0
5 7 6 15 3 8 -4 12 -10 9 -15 -3 -5 0 -9 5 -9 15 0 14 23 -1 38 -7 7 -8 12 -3
12 4 0 22 -15 38 -32 25 -27 29 -29 25 -12 -5 18 -2 21 16 19 11 -1 29 -6 39
-10 15 -6 16 -10 5 -16 -10 -7 -10 -9 2 -9 8 0 22 5 30 10 12 8 11 12 -8 30
-27 26 -28 30 -2 23 10 -3 22 -14 25 -24 4 -10 15 -19 26 -19 10 0 19 -7 19
-15 0 -11 -8 -13 -32 -8 -18 3 -30 3 -26 -1 3 -4 12 -8 20 -10 7 -1 18 -4 23
-7 6 -4 22 -6 37 -5 14 1 26 -1 26 -4 -1 -18 4 -23 11 -11 5 7 23 14 40 16 33
2 55 14 30 16 -8 1 -17 1 -21 1 -12 -2 -17 27 -6 34 7 5 8 2 3 -6 -6 -10 -4
-12 8 -7 14 5 33 -17 29 -35 -1 -5 9 -8 23 -8 14 0 25 -4 25 -9 0 -6 9 -8 19
-6 13 2 21 -4 26 -18 6 -19 8 -20 12 -4 2 9 9 17 14 17 14 0 11 -17 -7 -34
-12 -13 -20 -14 -37 -4 -12 6 -24 12 -27 12 -3 1 -4 6 -2 12 4 17 -29 27 -42
13 -8 -9 -8 -10 1 -5 13 7 37 -29 28 -43 -3 -5 9 -8 25 -7 17 1 30 -1 30 -6 0
-4 5 -8 11 -8 5 0 7 6 4 13 -4 6 0 4 9 -7 8 -10 19 -15 25 -12 12 8 43 -22 36
-34 -7 -11 -35 -2 -35 11 0 5 -7 9 -15 9 -11 0 -9 -8 8 -33 26 -39 57 -48 50
-14 l-5 22 20 -22 c11 -12 23 -19 27 -15 4 4 4 -3 1 -15 -4 -12 -2 -24 3 -28
7 -4 8 1 4 12 -4 12 -3 15 4 8 16 -15 27 -75 14 -75 -6 0 -11 9 -11 19 0 10
-6 21 -13 24 -17 6 -38 -46 -26 -64 5 -8 9 -26 9 -40 0 -15 7 -32 16 -40 12
-10 14 -26 11 -65 -3 -39 -1 -54 9 -58 20 -8 17 -18 -16 -55 -17 -18 -27 -37
-24 -43 4 -6 2 -8 -3 -5 -6 4 -14 0 -17 -9 -3 -8 -2 -13 3 -10 4 3 13 -6 20
-21 11 -23 10 -25 -3 -13 -10 7 -16 8 -16 2 0 -6 -9 -13 -19 -17 -11 -3 -22
-13 -25 -21 -4 -11 2 -9 24 6 23 16 31 18 35 8 8 -22 -1 -50 -19 -60 -14 -8
-16 -6 -10 16 4 16 2 26 -5 26 -6 0 -11 -13 -11 -29 0 -17 -6 -31 -16 -35 -12
-5 -15 -2 -10 9 4 10 2 14 -5 9 -6 -3 -9 -19 -5 -35 3 -15 1 -31 -4 -34 -9 -6
-14 8 -11 28 1 5 -3 6 -9 2 -6 -3 -8 -11 -5 -16 4 -5 1 -9 -6 -9 -8 0 -7 -5 2
-17 8 -9 9 -14 3 -10 -7 4 -14 0 -18 -8 -6 -16 9 -29 24 -20 6 3 7 -1 4 -9 -5
-12 0 -16 19 -16 18 0 42 18 86 67 35 38 59 73 56 80 -2 8 -1 12 4 9 8 -5 49
72 55 104 9 48 12 48 89 28 630 -165 1039 -308 1752 -613 390 -167 1252 -576
1268 -601 3 -5 -60 -45 -141 -89 -209 -114 -625 -352 -854 -488 l-197 -117
-153 96 c-405 256 -878 580 -1173 804 -115 87 -346 269 -355 280 -3 3 -34 30
-70 60 -35 30 -86 75 -113 100 -27 25 -55 49 -63 53 -8 4 -14 14 -14 22 0 7
-8 16 -19 20 -10 3 -43 31 -72 63 -30 31 -57 56 -61 54 -4 -1 -5 5 -2 13 6 14
-7 20 -31 15 -5 -1 -7 1 -3 5 4 4 -9 20 -27 37 -22 19 -32 35 -28 45 4 11 2
14 -5 9 -13 -8 -71 52 -72 74 0 8 -14 35 -30 60 -22 33 -30 40 -30 25 -1 -15
-6 -11 -19 15 -11 19 -17 38 -14 43 2 4 -3 10 -12 13 -9 4 -14 13 -11 20 3 8
1 14 -3 14 -11 0 -33 59 -26 70 3 5 -2 16 -11 24 -14 15 -14 16 0 16 9 0 16 8
16 17 0 9 7 24 16 34 14 16 14 19 -8 41 -13 13 -26 22 -30 20 -5 -1 -8 2 -8 6
0 5 -19 8 -41 7 -38 -1 -40 0 -23 13 18 13 18 14 -1 11 -11 -2 -25 0 -32 4
-17 11 -41 -2 -38 -21 2 -9 4 -19 4 -22 1 -3 5 2 11 10 11 17 23 9 15 -11 -3
-8 -20 -14 -40 -15 -19 0 -32 3 -29 7 2 4 -4 5 -15 2 -12 -3 -17 -11 -14 -22
2 -10 -2 -25 -11 -33 -8 -9 -12 -18 -9 -22 4 -3 1 -6 -6 -6 -6 0 -17 -12 -23
-27 -15 -39 -18 -54 -7 -47 5 3 9 11 9 18 0 7 9 21 20 31 24 22 25 18 4 -24
-9 -18 -14 -43 -11 -57 2 -13 1 -26 -3 -29 -4 -2 -3 -30 2 -62 11 -78 12 -82
31 -127 9 -21 17 -40 17 -43 0 -2 10 -25 21 -51 19 -42 38 -69 82 -122 6 -8
12 -17 12 -20 0 -7 56 -79 105 -135 68 -79 297 -302 405 -395 257 -222 575
-466 958 -735 286 -200 258 -182 472 -318 99 -64 188 -122 199 -129 16 -12 -9
-31 -270 -203 -717 -472 -1271 -897 -1584 -1216 -138 -140 -219 -235 -265
-309 -15 -25 -31 -47 -35 -50 -4 -3 -20 -32 -35 -65 -38 -83 -46 -189 -13
-169 7 5 28 7 48 5 25 -1 45 5 65 21 17 12 25 16 19 8 -19 -26 -36 -90 -30
-115 3 -13 21 -32 38 -43 34 -21 141 -46 132 -31 -3 5 -14 9 -25 9 -11 0 -34
7 -50 16 -29 14 -30 18 -24 57 4 23 9 50 11 60 6 21 44 44 44 26 0 -6 9 -1 20
12 14 17 18 19 14 6 -4 -10 65 54 152 140 333 331 663 604 1164 960 260 185
692 472 918 610 l73 45 217 -129 c229 -137 490 -286 787 -451 99 -55 181 -104
182 -109 4 -10 -464 -246 -659 -333 -65 -29 -115 -56 -112 -61 6 -10 -65 -43
-74 -35 -3 3 1 6 8 6 7 0 11 2 8 5 -8 9 -38 -6 -32 -16 3 -5 -8 -14 -23 -21
-15 -6 -47 -20 -71 -31 -24 -10 -46 -17 -49 -13 -3 3 -11 0 -17 -7 -6 -8 -45
-28 -86 -47 -41 -18 -107 -48 -147 -66 -78 -36 -88 -39 -78 -24 3 6 -1 7 -9 4
-9 -3 -13 -11 -9 -17 3 -6 1 -7 -6 -3 -16 10 -53 -3 -45 -16 4 -7 2 -8 -5 -4
-6 4 -71 -17 -144 -48 -444 -184 -1147 -430 -1177 -411 -6 3 -10 2 -10 -3 0
-10 -214 -67 -255 -67 -16 0 -36 -6 -43 -12 -17 -17 -32 -17 -32 0 0 7 -3 8
-8 2 -4 -5 -18 -16 -32 -24 -23 -13 -24 -13 -11 2 14 18 5 22 -23 11 -9 -3
-13 -10 -10 -15 3 -5 -2 -9 -11 -9 -10 0 -13 5 -9 12 5 8 0 9 -17 5 -13 -4
-28 -7 -34 -8 -5 0 -1 -4 10 -9 18 -8 17 -9 -7 -9 -14 -1 -28 4 -30 10 -2 6
-15 8 -33 3 -25 -6 -27 -8 -10 -14 12 -4 -7 -9 -50 -14 -112 -11 -225 -12
-229 -1 -3 6 -5 4 -5 -3 -1 -9 -6 -10 -18 -4 -10 5 -48 12 -85 16 -37 4 -74 9
-81 12 -7 2 -23 -5 -36 -17 -21 -20 -23 -28 -18 -76 11 -103 61 -159 194 -216
439 -187 1871 272 3696 1185 l339 169 351 -175 c1417 -703 2590 -1140 3247
-1210 149 -16 366 -9 393 12 7 5 27 12 45 15 83 16 202 133 202 198 0 15 6 30
13 33 10 5 10 7 0 12 -7 3 -13 21 -13 40 0 31 -3 34 -27 33 -16 0 -50 -4 -78
-10 -27 -5 -113 -12 -190 -15 -128 -5 -138 -4 -120 10 19 15 19 15 -15 16 -26
0 -31 -3 -20 -10 11 -7 -3 -10 -45 -9 -38 0 -53 3 -41 8 18 7 18 8 -5 14 -13
4 -25 2 -27 -3 -2 -6 -10 -10 -18 -10 -9 0 -13 4 -9 9 3 5 -5 13 -17 17 -13 4
-24 2 -26 -5 -2 -6 -13 -11 -25 -11 -17 0 -19 2 -8 9 11 7 9 10 -9 16 -15 5
-25 2 -31 -6 -5 -9 -9 -9 -9 -3 0 15 -40 26 -40 11 0 -9 -2 -9 -8 -1 -4 6 -14
11 -22 11 -48 1 -282 61 -288 74 -2 4 -12 5 -22 2 -12 -3 -20 0 -20 6 0 7 -4
10 -9 7 -11 -7 -215 53 -219 65 -2 5 -7 7 -12 4 -8 -5 -261 81 -495 168 -337
126 -793 320 -1239 526 -287 133 -736 353 -736 361 0 3 17 14 38 26 263 146
377 210 602 339 146 84 330 191 409 239 79 47 145 86 147 86 19 0 693 -442
939 -616 549 -388 818 -609 1230 -1007 66 -64 126 -117 133 -117 6 0 12 -5 12
-11 0 -7 12 -10 29 -7 34 5 48 -15 53 -72 2 -19 6 -37 10 -40 13 -10 -21 -42
-59 -55 -35 -13 -36 -14 -10 -15 37 0 115 38 128 62 6 12 8 36 4 57 -4 20 -5
36 -3 37 1 0 -4 9 -12 20 -13 17 -13 18 0 7 8 -6 33 -14 55 -18 22 -4 47 -9
55 -11 20 -5 44 48 34 78 -4 13 -8 33 -10 44 -2 21 -53 106 -66 112 -5 2 -8
11 -8 20 -1 31 -151 206 -314 366 -336 329 -907 763 -1603 1220 -134 87 -241
162 -238 165 2 4 52 38 112 75 402 254 1045 714 1343 961 556 462 802 751 857
1008 17 80 18 76 -14 207 -7 30 -51 80 -70 80 -8 0 -16 6 -19 13 -8 21 -58 13
-69 -11 -5 -12 -13 -22 -17 -22 -5 0 -8 -6 -8 -14 0 -17 -86 -190 -103 -209
-7 -6 -35 -43 -64 -82 -28 -38 -64 -81 -79 -95 -21 -18 -24 -19 -14 -5 8 11 0
7 -18 -9 -30 -28 -44 -55 -21 -40 6 3 3 -5 -6 -20 -21 -32 -30 -34 -14 -3 7
13 -7 5 -35 -23 -43 -41 -63 -74 -33 -54 7 5 4 1 -8 -9 -11 -10 -54 -50 -96
-90 -120 -114 -170 -159 -229 -207 -30 -25 -57 -47 -60 -51 -32 -37 -540 -421
-782 -590 -381 -266 -928 -620 -928 -600 0 19 -690 422 -1107 647 -40 21 -73
41 -73 44 0 10 123 72 410 210 711 341 1293 587 1885 795 232 82 668 204 825
231 162 28 287 69 296 96 5 16 11 18 37 13 18 -4 36 -11 41 -16 6 -5 18 -9 28
-9 27 0 34 -46 15 -97 -9 -24 -14 -43 -11 -43 11 0 45 98 46 131 1 54 -17 78
-67 91 -35 9 -42 15 -33 25 6 7 17 13 25 13 8 0 11 4 8 10 -3 6 -2 10 4 10 6
0 8 6 5 14 -3 7 3 17 13 20 17 7 17 8 -1 22 -11 8 -14 14 -8 14 22 0 12 17
-16 29 -49 20 -93 25 -227 25 -136 0 -160 -2 -340 -35 -669 -123 -1774 -555
-3046 -1191 l-296 -148 -214 110 c-829 423 -1714 804 -2404 1034 -287 96 -723
209 -845 219 -20 2 -41 7 -48 11 -8 5 -10 2 -6 -8 3 -9 2 -16 -3 -16 -11 0
-33 44 -33 66 0 8 -4 12 -10 9 -6 -3 -7 1 -4 9 6 16 -4 20 -36 17 -12 -2 -12
0 -2 7 32 22 -56 121 -169 190 -44 27 -50 27 -42 5 6 -15 5 -16 -9 -3 -9 8
-14 18 -11 23 2 4 -1 8 -6 8 -11 2 -26 5 -38 9 -5 1 -16 2 -25 1 -10 -1 -18 2
-18 6 0 13 -85 20 -135 11 -5 0 -20 2 -32 6 -12 4 -24 2 -28 -4z m125 -30 c0
-5 -4 -10 -10 -10 -5 0 -10 5 -10 10 0 6 5 10 10 10 6 0 10 -4 10 -10z m34
-11 c-3 -5 2 -9 11 -9 9 0 13 -4 10 -10 -3 -5 0 -10 8 -10 8 0 17 -7 20 -15 5
-11 1 -12 -20 -4 -19 7 -29 6 -36 -3 -6 -9 -7 -6 -4 10 3 12 2 22 -2 22 -4 0
-7 8 -7 19 0 11 5 17 13 14 7 -3 10 -9 7 -14z m-329 -38 c3 -5 1 -12 -5 -16
-5 -3 -10 1 -10 9 0 18 6 21 15 7z m645 -121 c0 -5 -5 -10 -11 -10 -5 0 -7 5
-4 10 3 6 8 10 11 10 2 0 4 -4 4 -10z m30 -24 c0 -2 -6 -9 -14 -15 -11 -9 -16
-9 -22 0 -4 7 -3 9 4 5 6 -3 13 -2 17 4 6 10 15 14 15 6z m30 -66 c0 -5 -4
-10 -10 -10 -5 0 -10 5 -10 10 0 6 5 10 10 10 6 0 10 -4 10 -10z m-10 -116 c0
-5 -6 -19 -14 -30 -15 -19 -15 -19 -14 1 0 11 0 25 -2 30 -1 6 -2 19 -1 29 1
20 1 20 16 0 8 -10 15 -24 15 -30z m37 6 c7 -10 10 -26 7 -35 -4 -10 -2 -14 7
-10 10 4 14 -5 15 -30 1 -39 -11 -47 -19 -13 -5 19 -8 20 -24 8 -15 -12 -16
-12 -5 0 14 16 16 34 3 26 -5 -3 -12 1 -15 10 -8 21 -8 26 3 20 4 -3 6 6 3 19
-5 30 8 33 25 5z m-490 -75 c-9 -9 -14 -10 -19 -1 -13 19 -9 24 11 19 16 -4
17 -8 8 -18z m-36 -11 c8 -24 -7 -55 -18 -39 -5 6 -23 11 -42 10 -19 0 -36 5
-38 11 -3 10 8 14 50 15 9 0 17 7 17 15 0 21 21 12 31 -12z m489 16 c0 -5 -2
-10 -4 -10 -3 0 -8 5 -11 10 -3 6 -1 10 4 10 6 0 11 -4 11 -10z m-615 -40 c-3
-5 -12 -10 -18 -10 -7 0 -6 4 3 10 19 12 23 12 15 0z m656 -22 c0 -25 2 -28 8
-15 6 17 8 17 17 -5 5 -12 7 -41 3 -63 -3 -22 -7 -34 -8 -27 0 7 -6 10 -11 7
-7 -5 -8 -11 -1 -18 6 -7 6 -26 1 -47 -4 -19 -8 -30 -9 -23 -1 6 -10 9 -20 6
-21 -5 -50 34 -35 46 22 15 39 69 38 118 0 29 3 53 8 53 4 0 8 -15 9 -32z
m-34 -20 c-3 -8 -6 -5 -6 6 -1 11 2 17 5 13 3 -3 4 -12 1 -19z m93 -82 c0 -3
-4 -8 -10 -11 -5 -3 -10 -1 -10 4 0 6 5 11 10 11 6 0 10 -2 10 -4z m-110 -112
c0 -8 -4 -12 -10 -9 -5 3 -10 10 -10 16 0 5 5 9 10 9 6 0 10 -7 10 -16z m10
-44 c0 -5 -2 -10 -4 -10 -3 0 -8 5 -11 10 -3 6 -1 10 4 10 6 0 11 -4 11 -10z
m-297 -40 c9 -11 13 -20 7 -20 -5 0 -14 9 -20 20 -6 11 -9 20 -8 20 2 0 11 -9
21 -20z m200 -55 c-3 -9 -8 -14 -10 -11 -3 3 -2 9 2 15 9 16 15 13 8 -4z
m4092 -1453 c435 -238 837 -472 832 -486 -10 -29 -1190 -696 -1232 -696 -6 0
-58 25 -116 56 -57 31 -147 78 -199 106 -52 28 -140 77 -195 108 -55 31 -131
74 -170 95 -71 39 -374 214 -498 288 -37 22 -64 44 -60 48 31 31 764 447 1132
642 l105 56 95 -51 c53 -28 191 -103 306 -166z m1160 -298 c-26 -20 -55 -36
-55 -30 0 5 63 46 70 46 3 -1 -4 -8 -15 -16z m-65 -39 c0 -2 -10 -9 -22 -15
-22 -11 -22 -10 -4 4 21 17 26 19 26 11z m-50 -30 c0 -2 -10 -9 -22 -15 -22
-11 -22 -10 -4 4 21 17 26 19 26 11z"/>
<path d="M868 5433 c7 -3 16 -2 19 1 4 3 -2 6 -13 5 -11 0 -14 -3 -6 -6z"/>
<path d="M761 5421 c-14 -4 -26 -12 -29 -20 -3 -10 0 -11 17 -1 12 6 35 10 51
8 16 -2 30 1 32 7 4 11 -37 15 -71 6z"/>
<path d="M858 5413 c6 -2 18 -2 25 0 6 3 1 5 -13 5 -14 0 -19 -2 -12 -5z"/>
<path d="M775 5390 c-3 -5 -1 -10 4 -10 6 0 11 5 11 10 0 6 -2 10 -4 10 -3 0
-8 -4 -11 -10z"/>
<path d="M841 5387 c-25 -25 -7 -36 23 -14 16 12 17 15 4 20 -9 3 -21 0 -27
-6z"/>
<path d="M905 5390 c-14 -7 -8 -8 20 -3 22 3 42 7 44 9 9 8 -45 2 -64 -6z"/>
<path d="M734 5368 c-10 -13 -12 -17 -4 -10 23 20 35 14 14 -9 -19 -21 -19
-21 9 -8 22 10 25 15 15 28 -7 9 -13 17 -14 19 0 1 -9 -8 -20 -20z"/>
<path d="M1072 5379 c2 -6 18 -17 36 -24 l32 -14 -16 25 c-16 23 -59 35 -52
13z"/>
<path d="M637 5353 c-22 -11 -31 -12 -43 -3 -8 8 -14 8 -14 2 0 -14 24 -22 51
-15 15 4 20 3 15 -6 -10 -15 42 -7 58 9 8 8 4 10 -17 5 -22 -6 -26 -4 -21 9 7
18 8 18 -29 -1z"/>
<path d="M973 5349 c-2 -23 3 -25 10 -4 4 8 3 16 -1 19 -4 3 -9 -4 -9 -15z"/>
<path d="M506 5319 c-14 -17 -26 -35 -26 -40 0 -13 49 25 67 51 24 34 -11 25
-41 -11z"/>
<path d="M1187 5303 c-3 -5 13 -21 34 -38 43 -34 50 -50 17 -40 -21 6 -21 6
-6 -6 10 -8 19 -24 21 -36 4 -31 13 -37 13 -10 1 12 3 33 5 47 3 18 -2 27 -21
37 -14 7 -21 13 -16 13 5 0 1 9 -9 20 -19 21 -31 25 -38 13z"/>
<path d="M1057 5293 c-4 -3 -7 -11 -7 -17 0 -6 4 -5 9 3 6 9 11 10 15 2 4 -6
16 -11 28 -11 18 0 19 -2 7 -17 -12 -14 -12 -16 0 -12 26 9 23 28 -8 43 -34
18 -35 18 -44 9z"/>
<path d="M1160 5254 c0 -3 7 -12 15 -21 12 -11 13 -18 5 -29 -8 -9 -9 -18 -1
-31 9 -16 10 -15 11 9 0 15 5 30 10 33 6 3 10 11 10 16 0 6 -4 7 -10 4 -5 -3
-10 -2 -10 3 0 6 -7 12 -15 16 -8 3 -15 3 -15 0z"/>
<path d="M770 5240 c0 -5 5 -10 11 -10 5 0 7 5 4 10 -3 6 -8 10 -11 10 -2 0
-4 -4 -4 -10z"/>
<path d="M466 5228 c3 -4 11 -5 19 -1 21 7 19 12 -4 10 -11 0 -18 -5 -15 -9z"/>
<path d="M505 5200 c-3 -5 -1 -10 4 -10 6 0 11 5 11 10 0 6 -2 10 -4 10 -3 0
-8 -4 -11 -10z"/>
<path d="M1207 5195 c-4 -8 -2 -17 2 -20 5 -2 11 4 14 15 6 23 -8 27 -16 5z"/>
<path d="M412 5151 c-29 -63 -40 -141 -21 -141 11 -1 11 -3 -1 -13 -17 -14
-27 -53 -11 -42 6 3 11 13 11 21 0 8 7 17 15 21 14 5 14 7 -1 24 -14 15 -14
23 -4 54 9 27 16 35 29 31 15 -6 15 -5 0 7 -15 11 -15 15 -3 32 16 22 35 26
46 10 5 -6 8 -5 8 3 0 8 -9 16 -20 19 -11 3 -17 9 -14 14 3 5 2 9 -3 9 -4 0
-18 -22 -31 -49z"/>
<path d="M570 5189 c0 -5 5 -7 10 -4 6 3 10 8 10 11 0 2 -4 4 -10 4 -5 0 -10
-5 -10 -11z"/>
<path d="M548 5153 c-21 -24 -32 -63 -19 -63 6 0 11 11 11 24 0 13 10 30 23
39 12 9 17 16 11 16 -6 1 -18 -7 -26 -16z"/>
<path d="M1009 5113 c-13 -16 -12 -17 4 -4 16 13 21 21 13 21 -2 0 -10 -8 -17
-17z"/>
<path d="M1282 5097 c-12 -13 -22 -27 -22 -32 0 -5 7 1 16 14 10 14 23 21 34
18 13 -3 17 0 13 9 -7 20 -16 18 -41 -9z"/>
<path d="M540 5065 c-8 -9 -8 -15 -2 -15 12 0 26 19 19 26 -2 2 -10 -2 -17
-11z"/>
<path d="M1326 5038 c10 -12 13 -18 7 -14 -9 5 -13 1 -13 -12 0 -11 -7 -23
-16 -26 -8 -3 -13 -10 -9 -15 3 -5 1 -12 -5 -16 -5 -3 -10 -14 -10 -23 1 -15
3 -14 18 4 10 11 23 19 31 16 9 -3 11 2 7 14 -6 22 9 52 21 41 4 -5 1 -12 -7
-18 -12 -7 -13 -11 -2 -18 11 -6 10 -11 -3 -24 -19 -19 -28 -57 -14 -57 5 0 9
-5 9 -11 0 -5 -3 -8 -7 -6 -5 2 -17 -5 -27 -16 -16 -17 -17 -19 -3 -14 9 3 17
2 17 -3 0 -6 -7 -10 -15 -10 -24 0 -29 -26 -10 -52 l16 -23 -6 27 c-5 21 -2
30 18 43 25 16 35 53 42 150 2 31 -28 85 -47 85 -6 0 -3 -10 8 -22z m24 -133
c0 -8 -2 -15 -4 -15 -2 0 -6 7 -10 15 -3 8 -1 15 4 15 6 0 10 -7 10 -15z"/>
<path d="M490 5035 c-7 -9 -8 -15 -2 -15 5 0 12 7 16 15 3 8 4 15 2 15 -2 0
-9 -7 -16 -15z"/>
<path d="M1000 4966 c0 -8 -5 -16 -11 -18 -7 -2 -5 -9 5 -17 14 -12 16 -10 16
18 0 17 -2 31 -5 31 -3 0 -5 -6 -5 -14z"/>
<path d="M473 4933 c-7 -15 -13 -34 -13 -42 1 -9 7 -1 16 18 17 41 15 62 -3
24z"/>
<path d="M1242 4940 c0 -14 2 -19 5 -12 2 6 2 18 0 25 -3 6 -5 1 -5 -13z"/>
<path d="M382 4880 c2 -51 14 -73 23 -39 6 23 -8 79 -20 79 -3 0 -4 -18 -3
-40z"/>
<path d="M1025 4900 c3 -5 8 -10 11 -10 2 0 4 5 4 10 0 6 -5 10 -11 10 -5 0
-7 -4 -4 -10z"/>
<path d="M1220 4894 c0 -8 5 -12 10 -9 6 4 8 11 5 16 -9 14 -15 11 -15 -7z"/>
<path d="M988 4893 c6 -2 9 -10 6 -15 -4 -7 -2 -8 4 -4 18 11 14 26 -5 25 -11
0 -13 -3 -5 -6z"/>
<path d="M1155 4880 c-3 -5 -1 -10 4 -10 6 0 11 5 11 10 0 6 -2 10 -4 10 -3 0
-8 -4 -11 -10z"/>
<path d="M1255 4880 c3 -5 8 -10 11 -10 2 0 4 5 4 10 0 6 -5 10 -11 10 -5 0
-7 -4 -4 -10z"/>
<path d="M435 4860 c5 -15 4 -20 -4 -16 -6 4 -11 3 -11 -2 0 -6 6 -12 13 -15
16 -6 21 39 6 49 -8 4 -9 -1 -4 -16z"/>
<path d="M460 4860 c0 -5 5 -10 11 -10 5 0 7 5 4 10 -3 6 -8 10 -11 10 -2 0
-4 -4 -4 -10z"/>
<path d="M526 4814 c-8 -21 -8 -69 0 -61 7 7 15 77 10 77 -2 0 -7 -7 -10 -16z"/>
<path d="M1261 4814 c0 -11 3 -14 6 -6 3 7 2 16 -1 19 -3 4 -6 -2 -5 -13z"/>
<path d="M405 4788 c5 -37 31 -82 38 -64 3 8 1 16 -4 18 -5 2 -11 17 -13 33
-2 16 -8 31 -13 32 -6 2 -9 -7 -8 -19z"/>
<path d="M1136 4794 c-8 -22 -8 -24 6 -24 6 0 8 3 5 7 -4 3 -2 12 4 20 7 8 8
13 1 13 -5 0 -13 -7 -16 -16z"/>
<path d="M485 4780 c3 -5 8 -10 11 -10 2 0 4 5 4 10 0 6 -5 10 -11 10 -5 0 -7
-4 -4 -10z"/>
<path d="M585 4770 c-3 -6 1 -7 9 -4 18 7 21 14 7 14 -6 0 -13 -4 -16 -10z"/>
<path d="M467 4742 c-19 -21 -22 -32 -7 -32 10 0 34 39 27 46 -2 2 -11 -4 -20
-14z"/>
<path d="M510 4713 c0 -13 5 -23 10 -23 13 0 13 11 0 30 -8 12 -10 11 -10 -7z"/>
<path d="M550 4715 c-8 -9 -8 -15 -2 -15 12 0 26 19 19 26 -2 2 -10 -2 -17
-11z"/>
<path d="M1210 4721 c0 -6 5 -13 10 -16 6 -3 10 1 10 9 0 9 -4 16 -10 16 -5 0
-10 -4 -10 -9z"/>
<path d="M8842 4665 c-33 -48 -39 -61 -22 -50 14 9 63 86 58 91 -3 2 -19 -17
-36 -41z"/>
<path d="M484 4681 c4 -5 0 -11 -6 -14 -7 -2 -10 -8 -6 -12 12 -13 38 3 32 20
-3 8 -10 15 -16 15 -5 0 -7 -4 -4 -9z"/>
<path d="M1206 4683 c-11 -11 -6 -34 5 -27 8 4 9 -1 4 -16 -4 -14 -3 -20 3
-16 16 10 20 41 7 53 -7 7 -16 9 -19 6z"/>
<path d="M580 4646 c0 -9 30 -14 35 -6 4 6 -3 10 -14 10 -12 0 -21 -2 -21 -4z"/>
<path d="M493 4626 c9 -7 17 -18 17 -25 0 -12 13 -15 23 -5 7 8 -30 44 -45 44
-8 -1 -6 -6 5 -14z"/>
<path d="M1140 4630 c0 -5 5 -10 11 -10 5 0 7 5 4 10 -3 6 -8 10 -11 10 -2 0
-4 -4 -4 -10z"/>
<path d="M536 4581 c-5 -7 -2 -10 6 -9 7 2 12 -2 11 -9 -2 -7 12 -22 30 -35
17 -12 40 -30 50 -38 10 -8 21 -15 25 -15 4 -1 27 -11 51 -24 23 -12 40 -17
35 -10 -5 9 -2 10 10 6 10 -4 24 -7 32 -7 8 0 14 -7 14 -15 0 -8 7 -15 15 -15
27 0 16 31 -15 43 -16 6 -30 15 -30 20 0 5 -6 4 -14 -2 -11 -9 -20 -10 -36 -1
-11 6 -26 8 -32 4 -6 -4 -8 -3 -5 3 4 6 -1 19 -9 29 -9 10 -13 14 -10 7 4 -7
-1 -11 -13 -10 -11 1 -18 7 -16 17 1 8 -8 23 -21 33 -19 14 -22 15 -18 2 9
-22 -2 -18 -29 11 -16 17 -27 22 -31 15z m84 -45 c0 -3 -4 -8 -10 -11 -5 -3
-10 -1 -10 4 0 6 5 11 10 11 6 0 10 -2 10 -4z"/>
<path d="M1158 523 c18 -2 45 -2 60 0 15 2 0 4 -33 4 -33 0 -45 -2 -27 -4z"/>
<path d="M8848 523 c7 -3 16 -2 19 1 4 3 -2 6 -13 5 -11 0 -14 -3 -6 -6z"/>
</g>
</svg>
